# xmcd
#
# Track frame offsets:
#	150
#	18647
#	35511
#	53503
#	73208
#	88877
#	104502
#	122335
#	141145
#	157374
#	173641
#	191452
#
# Disc length: 2799 seconds
#
# Revision: 1
# Processed by: cddbd v1.5.2PL0 Copyright (c) Steve Scherf et al.
# Submitted via: EasyCDDAExtractor 15.3.0.1
#
DISCID=a70aed0c
DTITLE=Pablo Alboran
DYEAR=2011
DGENRE=Latin
TTITLE0=Solamente Tu
TTITLE1=Miedo
TTITLE2=Vuelve Conmigo
TTITLE3=Caramelo
TTITLE4=Volver A Empezar
TTITLE5=Me Cole Por La Puerta De Atras
TTITLE6=Desencuentro
TTITLE7=Perdoname
TTITLE8=Ladrona De Mi Piel
TTITLE9=Loco De Atar
TTITLE10=Desencuentro (Con Estrella Morente) (Bonus Track)
TTITLE11=Solamente Tu (Con Diana Navarro) (Bonus Track)
EXTD=
EXTT0=
EXTT1=
EXTT2=
EXTT3=
EXTT4=
EXTT5=
EXTT6=
EXTT7=
EXTT8=
EXTT9=
EXTT10=
EXTT11=
PLAYORDER=
